PathFileType	4	(X/Y/Z)	/Users/itak/Documents/Research/Walk-IL/dataset/trc/00212_00009.trc
DataRate	CameraRate	NumFrames	NumMarkers	Units	OrigDataRate	OrigDataStartFrame	OrigNumFrames
100.000000	100.000000	4	53	mm	100.000000	336	538
Frame#	Time	RPSI			LPSI			L3			STRN			T10			C7			CLAV			RBAK			LBAK			LSHO			LUPA			LAEL			LAOL			LWTS			LWPS			LFRA			LIFD			LHPS			RSHO			RUPA			RAEL			RAOL			RWTS			RWPS			RFRA			RIFD			RHTS			RHPS			RBHD			LFHD			RFHD			LBHD			LHIP			RHIP			RASI			LASI			LKNE			LTHI			LANK			LTIP			LTOE			LMT1			LMT5			LHEE			RKNE			RTHI			RANK			RTIP			RTOE			RMT1			RMT5			RHEE			LHTS			
		X1	Y1	Z1	X2	Y2	Z2	X3	Y3	Z3	X4	Y4	Z4	X5	Y5	Z5	X6	Y6	Z6	X7	Y7	Z7	X8	Y8	Z8	X9	Y9	Z9	X10	Y10	Z10	X11	Y11	Z11	X12	Y12	Z12	X13	Y13	Z13	X14	Y14	Z14	X15	Y15	Z15	X16	Y16	Z16	X17	Y17	Z17	X18	Y18	Z18	X19	Y19	Z19	X20	Y20	Z20	X21	Y21	Z21	X22	Y22	Z22	X23	Y23	Z23	X24	Y24	Z24	X25	Y25	Z25	X26	Y26	Z26	X27	Y27	Z27	X28	Y28	Z28	X29	Y29	Z29	X30	Y30	Z30	X31	Y31	Z31	X32	Y32	Z32	X33	Y33	Z33	X34	Y34	Z34	X35	Y35	Z35	X36	Y36	Z36	X37	Y37	Z37	X38	Y38	Z38	X39	Y39	Z39	X40	Y40	Z40	X41	Y41	Z41	X42	Y42	Z42	X43	Y43	Z43	X44	Y44	Z44	X45	Y45	Z45	X46	Y46	Z46	X47	Y47	Z47	X48	Y48	Z48	X49	Y49	Z49	X50	Y50	Z50	X51	Y51	Z51	X52	Y52	Z52	X53	Y53	Z53	

337	3.36	-93.49774169921875	1015.096496582031	-267.6944274902344	-92.36550903320312	1022.825988769531	-386.9241027832031	-96.93861389160156	1110.223876953125	-338.0665283203125	156.8809967041016	1297.751708984375	-348.3211669921875	-101.3237380981445	1234.862060546875	-325.9000854492188	-37.63840103149414	1495.819702148438	-335.5728759765625	130.3940734863281	1415.784545898438	-347.2823486328125	-108.8097152709961	1360.374877929688	-253.2154083251953	-66.44312286376953	1456.237182617188	-442.3154296875	17.08099746704102	1461.391235351562	-507.906982421875	-23.59036064147949	1340.734985351562	-579.0045166015625	-25.0723991394043	1131.740600585938	-605.3485717773438	-77.38150787353516	1115.838134765625	-537.7332153320312	73.28266906738281	897.094482421875	-587.13232421875	20.1320858001709	882.5107421875	-650.4137573242188	-12.40062618255615	1025.3017578125	-626.0389404296875	75.42390441894531	701.3694458007812	-606.7715454101562	37.04615783691406	795.17724609375	-656.2330322265625	34.32065963745117	1462.154052734375	-171.4185638427734	22.12274169921875	1397.047485351562	-102.6425018310547	19.65703201293945	1117.419799804688	-56.81559753417969	-33.16265106201172	1110.563232421875	-136.7521362304688	145.1595764160156	906.8594970703125	-136.1849670410156	112.3046493530273	890.2583618164062	-59.8304328918457	50.68412017822266	1049.550903320312	-51.65089416503906	165.3367919921875	711.6729125976562	-146.7900390625	189.4600677490234	786.1185302734375	-133.3019561767578	150.7550048828125	783.5040893554688	-71.7222900390625	-6.552011489868164	1642.970703125	-292.2290954589844	186.8143157958984	1700.419311523438	-397.2413940429688	191.0329742431641	1700.402709960938	-297.2983703613281	31.23382186889648	1652.09521484375	-426.7726440429688	18.98231506347656	971.3135986328125	-522.6227416992188	-1.193662524223328	974.2122802734375	-157.376708984375	94.81632995605469	1023.591064453125	-189.4433441162109	113.4704437255859	1015.041748046875	-467.605224609375	199.7444000244141	515.9136962890625	-466.3338317871094	145.90234375	649.007080078125	-501.1061096191406	139.5548248291016	33.98664855957031	-446.7422790527344	171.8595428466797	281.6183166503906	-465.1910400390625	353.6604614257812	41.02602767944336	-387.259033203125	285.0195007324219	36.70751953125	-345.4059448242188	266.8728332519531	33.13772964477539	-461.692138671875	78.3765869140625	43.07431793212891	-395.5833129882812	17.14090538024902	483.9381408691406	-172.8322143554688	52.17521667480469	750.9742431640625	-152.3898620605469	-393.0280151367188	206.2303924560547	-203.3138427734375	-46.11122894287109	381.4870910644531	-189.5551910400391	-261.6012268066406	50.56828308105469	-234.7273406982422	-295.5601501464844	88.58464813232422	-281.820556640625	-336.6632690429688	114.0638198852539	-171.1049957275391	-417.9648742675781	258.0308837890625	-263.8359069824219	96.34101104736328	797.5913696289062	-622.5850219726562	
338	3.37	-83.49033355712891	1016.708923339844	-268.2247619628906	-81.85383605957031	1024.837036132812	-387.3583374023438	-86.53083801269531	1112.087768554688	-339.0186462402344	167.2023620605469	1299.703491210938	-348.3253784179688	-90.90789794921875	1236.844604492188	-327.1615600585938	-27.32363319396973	1497.763305664062	-336.7099609375	140.7483520507812	1417.745971679688	-347.4351501464844	-98.67512512207031	1362.298706054688	-254.7308807373047	-55.57836151123047	1458.214721679688	-443.7000427246094	28.41472053527832	1463.259643554688	-508.6056518554688	-10.77461051940918	1342.615356445312	-580.3473510742188	-9.13662052154541	1133.443969726562	-607.1443481445312	-62.79960632324219	1116.687622070312	-540.8710327148438	94.86016845703125	901.607421875	-586.1387939453125	43.62744903564453	885.2515258789062	-650.521240234375	6.532099723815918	1027.187866210938	-627.3848266601562	104.3443832397461	706.1394653320312	-605.6629638671875	63.75249099731445	798.6055297851562	-655.9332885742188	43.83513259887695	1464.239501953125	-172.1775665283203	31.13859176635742	1399.302124023438	-103.4235000610352	27.07044792175293	1119.878540039062	-56.96400833129883	-25.85327339172363	1113.27392578125	-136.8489837646484	150.7343597412109	908.0988159179688	-136.1223449707031	117.6929473876953	891.8194580078125	-59.66868209838867	57.55326843261719	1051.793823242188	-51.75100708007812	169.3771362304688	712.7909545898438	-146.8898620605469	194.1441497802734	787.052490234375	-133.2195739746094	155.3024139404297	784.6893310546875	-71.66354370117188	3.835402965545654	1644.95458984375	-292.7631530761719	197.1455841064453	1702.33203125	-397.9462585449219	201.4384002685547	1702.338745117188	-298.0181884765625	41.51144027709961	1654.047729492188	-427.3503112792969	29.18532371520996	973.2387084960938	-523.3126831054688	9.395878791809082	975.606689453125	-158.1673583984375	105.2588043212891	1025.491943359375	-190.1029052734375	123.7969284057617	1016.891784667969	-468.4077758789062	203.9315948486328	515.33984375	-466.66455078125	152.2650299072266	649.3610229492188	-501.4094543457031	139.5400543212891	34.01914596557617	-446.68408203125	173.7509918212891	281.3102111816406	-465.3544921875	353.5773315429688	41.02927017211914	-387.0634765625	285.0033874511719	36.64043426513672	-345.3362426757812	266.8434753417969	33.19906616210938	-461.6815795898438	78.29829406738281	43.11898040771484	-395.5588684082031	38.93563842773438	484.9639892578125	-172.5911254882812	66.60687255859375	752.9584350585938	-152.8079528808594	-371.0784606933594	208.8493194580078	-205.3738861083984	-23.6141529083252	382.8589477539062	-189.6509704589844	-237.4790649414062	52.97615051269531	-232.3089752197266	-271.1946716308594	90.78508758544922	-280.6609191894531	-314.223876953125	117.8699722290039	-170.9369964599609	-395.8968505859375	259.4515380859375	-266.8323364257812	122.1885528564453	803.1470947265625	-621.0988159179688	
339	3.38	-73.49961853027344	1018.283203125	-268.5859680175781	-71.49674224853516	1026.75048828125	-387.6473999023438	-76.15873718261719	1113.828857421875	-339.8148193359375	177.3842926025391	1301.561645507812	-348.2066345214844	-80.5921630859375	1238.735107421875	-328.3644409179688	-17.12566947937012	1499.63037109375	-337.8440551757812	150.9766540527344	1419.617919921875	-347.4699096679688	-88.70365142822266	1364.139526367188	-256.2871398925781	-44.76559066772461	1460.124267578125	-445.1004028320312	39.74116134643555	1465.046020507812	-509.2412719726562	2.098635196685791	1344.460815429688	-581.6761474609375	6.9170823097229	1135.19091796875	-609.0006713867188	-48.19498443603516	1117.5126953125	-544.2185668945312	116.3366012573242	906.2918701171875	-585.0211181640625	67.24694061279297	888.2848510742188	-650.5763549804688	25.61315536499023	1029.220825195312	-628.7570190429688	133.0930328369141	711.325927734375	-604.3270874023438	90.50675201416016	802.4150390625	-655.5162353515625	53.10079956054688	1466.246826171875	-172.8842163085938	39.78873825073242	1401.51171875	-104.1563949584961	33.89481735229492	1122.2890625	-56.99376678466797	-18.81796455383301	1115.91357421875	-136.9989318847656	156.415283203125	909.6436157226562	-135.6262359619141	122.7812652587891	893.4332275390625	-59.33484649658203	63.87560272216797	1054.000122070312	-51.68206024169922	174.1949462890625	714.348876953125	-146.7259216308594	199.2740020751953	788.4494018554688	-132.5778350830078	159.9025268554688	786.1015014648438	-71.36160278320312	14.08477115631104	1646.833862304688	-293.25	207.3894500732422	1704.1796875	-398.4920654296875	211.7117614746094	1704.18603515625	-298.5728149414062	51.72791290283203	1655.931274414062	-427.8536376953125	39.11946487426758	975.04150390625	-523.9296875	20.0034294128418	977.0777587890625	-158.8423309326172	115.7000198364258	1027.361083984375	-190.7977752685547	133.9058532714844	1018.678833007812	-469.2301635742188	207.8690795898438	514.7657470703125	-467.006591796875	158.4173889160156	649.6901245117188	-501.6942138671875	139.5305938720703	34.05086517333984	-446.6328735351562	175.5345306396484	281.0081176757812	-465.5455627441406	353.5202941894531	41.01779556274414	-386.8939819335938	285.0023498535156	36.57170486450195	-345.2933959960938	266.8217468261719	33.22227096557617	-461.6885070800781	78.22335052490234	43.1860237121582	-395.5347290039062	60.54303741455078	486.3313903808594	-172.3855743408203	81.02806091308594	755.0741577148438	-153.1114196777344	-347.9717407226562	209.6145172119141	-207.4554901123047	-1.046923518180847	384.3696899414062	-189.757568359375	-211.1647033691406	55.13013076782227	-230.2030944824219	-244.8788757324219	92.21077728271484	-279.6972045898438	-289.9420776367188	120.3098602294922	-170.9600524902344	-373.0742492675781	258.8941650390625	-269.7798767089844	147.9094696044922	809.0137939453125	-619.3788452148438	
340	3.39	-63.4981575012207	1019.797058105469	-268.7861938476562	-61.27935028076172	1028.547485351562	-387.8012390136719	-65.80781555175781	1115.439086914062	-340.4617004394531	187.4393157958984	1303.318725585938	-347.9820251464844	-70.36477661132812	1240.515625	-329.5137939453125	-7.041879177093506	1501.404663085938	-338.9661254882812	161.0848388671875	1421.392456054688	-347.4000244140625	-78.88501739501953	1365.881103515625	-257.870361328125	-34.01800155639648	1461.94482421875	-446.5011291503906	51.0379753112793	1466.741455078125	-509.8099365234375	15.00180244445801	1346.257080078125	-582.9714965820312	23.08514022827148	1136.971801757812	-610.9031372070312	-33.55437088012695	1118.301513671875	-547.74755859375	137.6863098144531	911.12060546875	-583.7871704101562	90.94871520996094	891.6019287109375	-650.5712280273438	44.82810592651367	1031.394165039062	-630.137451171875	161.5736083984375	716.8881225585938	-602.7551879882812	117.2405776977539	806.5820922851562	-654.9701538085938	62.13880157470703	1468.162475585938	-173.5414276123047	48.10811233520508	1403.660278320312	-104.8436279296875	40.17757034301758	1124.634399414062	-56.93610000610352	-12.0042200088501	1118.467041015625	-137.2310333251953	162.2351531982422	911.4432373046875	-134.6738433837891	127.5669326782227	895.0572509765625	-58.84117889404297	69.68879699707031	1056.15185546875	-51.46699905395508	179.7591247558594	716.2733764648438	-146.2803192138672	204.830078125	790.2266235351562	-131.3489532470703	164.5202789306641	787.6764526367188	-70.81871032714844	24.20948219299316	1648.603271484375	-293.6963195800781	217.5591735839844	1705.941284179688	-398.8916625976562	221.869140625	1705.927978515625	-298.9748229980469	61.89438247680664	1657.73193359375	-428.2905578613281	48.79875183105469	976.7068481445312	-524.4796752929688	30.6237964630127	978.6179809570312	-159.4088745117188	126.1317367553711	1029.189819335938	-191.5440368652344	143.8103790283203	1020.388916015625	-470.0881652832031	211.5879974365234	514.1915283203125	-467.3616943359375	164.3739166259766	649.9774169921875	-501.9656677246094	139.5266571044922	34.08573913574219	-446.5822448730469	177.2163696289062	280.7176818847656	-465.754150390625	353.4903564453125	40.98426818847656	-386.7485046386719	285.0152282714844	36.49985504150391	-345.2702941894531	266.8059997558594	33.21823883056641	-461.7101135253906	78.15529632568359	43.27466583251953	-395.5045471191406	81.91423797607422	488.007080078125	-172.2196197509766	95.42356109619141	757.30859375	-153.3146514892578	-323.7647399902344	208.54541015625	-209.4874267578125	21.55697822570801	385.9712219238281	-189.8676605224609	-182.8867034912109	56.89034271240234	-228.4571380615234	-216.8397674560547	92.80894470214844	-278.9506225585938	-263.9790649414062	121.3243942260742	-171.1754760742188	-349.503173828125	256.418212890625	-272.5859069824219	173.4364624023438	815.1433715820312	-617.424072265625	
